REM DIRINDEX 1\2,1\3\7,1\3\8,1\4\9,1\4\10,1\4\11,1\5\12,1\5\13,1\5\14,1\6\15,1\6\16,1\6\17
REM DIRNAME "folder01","folder02","folder03","folder04","folder05","folder06","folder07","folder08","folder09","folder10","folder11","folder12","folder13","folder14","folder15","folder16","folder17"
TITLE ""
FILE "2Q_j_1370-1383.mp3" MP3
  TRACK 01 AUDIO
    TITLE "9:cjc174_0326"
    INDEX 01 00:00:00
  TRACK 02 AUDIO
    TITLE "0:"
    INDEX 01 00:01:37
  TRACK 03 AUDIO
    TITLE "10:cjc174_0327"
    INDEX 01 00:02:07
  TRACK 04 AUDIO
    TITLE "0:"
    INDEX 01 00:04:73
  TRACK 05 AUDIO
    TITLE "11:cjc174_0328"
    INDEX 01 00:05:41
  TRACK 06 AUDIO
    TITLE "0:"
    INDEX 01 00:10:50
  TRACK 07 AUDIO
    TITLE "9:cjc174_0329"
    INDEX 01 00:11:26
  TRACK 08 AUDIO
    TITLE "0:"
    INDEX 01 00:12:66
  TRACK 09 AUDIO
    TITLE "10:cjc174_0330"
    INDEX 01 00:13:38
  TRACK 10 AUDIO
    TITLE "0:"
    INDEX 01 00:15:37
  TRACK 11 AUDIO
    TITLE "11:cjc174_0331"
    INDEX 01 00:16:05
  TRACK 12 AUDIO
    TITLE "0:"
    INDEX 01 00:19:19
  TRACK 13 AUDIO
    TITLE "9:cjc174_0332"
    INDEX 01 00:20:01
  TRACK 14 AUDIO
    TITLE "0:"
    INDEX 01 00:21:46
  TRACK 15 AUDIO
    TITLE "10:cjc174_0333"
    INDEX 01 00:22:16
  TRACK 16 AUDIO
    TITLE "0:"
    INDEX 01 00:23:68
  TRACK 17 AUDIO
    TITLE "11:cjc174_0334"
    INDEX 01 00:24:38
  TRACK 18 AUDIO
    TITLE "0:"
    INDEX 01 00:29:45
  TRACK 19 AUDIO
    TITLE "9:cjc174_0335"
    INDEX 01 00:30:19
  TRACK 20 AUDIO
    TITLE "0:"
    INDEX 01 00:31:56
  TRACK 21 AUDIO
    TITLE "10:cjc174_0336"
    INDEX 01 00:32:30
  TRACK 22 AUDIO
    TITLE "0:"
    INDEX 01 00:37:19
  TRACK 23 AUDIO
    TITLE "11:cjc174_0337"
    INDEX 01 00:37:64
  TRACK 24 AUDIO
    TITLE "0:"
    INDEX 01 00:42:20
  TRACK 25 AUDIO
    TITLE "9:cjc174_0338"
    INDEX 01 00:42:69
  TRACK 26 AUDIO
    TITLE "0:"
    INDEX 01 00:44:49
  TRACK 27 AUDIO
    TITLE "10:cjc174_0339"
    INDEX 01 00:45:21
  TRACK 28 AUDIO
    TITLE "0:"
    INDEX 01 00:47:55
  TRACK 29 AUDIO
    TITLE "11:cjc174_0340"
    INDEX 01 00:48:27
  TRACK 30 AUDIO
    TITLE "0:"
    INDEX 01 00:52:64
  TRACK 31 AUDIO
    TITLE "9:cjc174_0341"
    INDEX 01 00:53:36
  TRACK 32 AUDIO
    TITLE "0:"
    INDEX 01 00:54:53
  TRACK 33 AUDIO
    TITLE "10:cjc174_0342"
    INDEX 01 00:55:27
  TRACK 34 AUDIO
    TITLE "0:"
    INDEX 01 00:56:72
  TRACK 35 AUDIO
    TITLE "11:cjc174_0343"
    INDEX 01 00:57:42
  TRACK 36 AUDIO
    TITLE "0:"
    INDEX 01 01:01:43
  TRACK 37 AUDIO
    TITLE "9:cjc174_0344"
    INDEX 01 01:02:15
  TRACK 38 AUDIO
    TITLE "0:"
    INDEX 01 01:03:36
  TRACK 39 AUDIO
    TITLE "10:cjc174_0345"
    INDEX 01 01:04:08
  TRACK 40 AUDIO
    TITLE "0:"
    INDEX 01 01:06:29
  TRACK 41 AUDIO
    TITLE "11:cjc174_0346"
    INDEX 01 01:06:74
  TRACK 42 AUDIO
    TITLE "0:"
    INDEX 01 01:12:14
  TRACK 43 AUDIO
    TITLE "9:cjc174_0347"
    INDEX 01 01:12:65
  TRACK 44 AUDIO
    TITLE "0:"
    INDEX 01 01:14:01
  TRACK 45 AUDIO
    TITLE "10:cjc174_0348"
    INDEX 01 01:14:44
  TRACK 46 AUDIO
    TITLE "0:"
    INDEX 01 01:16:31
  TRACK 47 AUDIO
    TITLE "11:cjc174_0349"
    INDEX 01 01:17:01
  TRACK 48 AUDIO
    TITLE "0:"
    INDEX 01 01:20:43
  TRACK 49 AUDIO
    TITLE "9:cjc174_0350"
    INDEX 01 01:21:15
  TRACK 50 AUDIO
    TITLE "0:"
    INDEX 01 01:22:43
  TRACK 51 AUDIO
    TITLE "10:cjc174_0351"
    INDEX 01 01:23:16
  TRACK 52 AUDIO
    TITLE "0:"
    INDEX 01 01:25:10
  TRACK 53 AUDIO
    TITLE "11:cjc174_0352"
    INDEX 01 01:25:59
  TRACK 54 AUDIO
    TITLE "0:"
    INDEX 01 01:29:71
  TRACK 55 AUDIO
    TITLE "9:cjc174_0353"
    INDEX 01 01:30:43
  TRACK 56 AUDIO
    TITLE "0:"
    INDEX 01 01:32:52
  TRACK 57 AUDIO
    TITLE "10:cjc174_0354"
    INDEX 01 01:33:26
  TRACK 58 AUDIO
    TITLE "0:"
    INDEX 01 01:35:05
  TRACK 59 AUDIO
    TITLE "11:cjc174_0355"
    INDEX 01 01:35:50
  TRACK 60 AUDIO
    TITLE "0:"
    INDEX 01 01:39:73
  TRACK 61 AUDIO
    TITLE "9:cjc174_0356"
    INDEX 01 01:40:49
  TRACK 62 AUDIO
    TITLE "0:"
    INDEX 01 01:42:07
  TRACK 63 AUDIO
    TITLE "10:cjc174_0357"
    INDEX 01 01:42:52
  TRACK 64 AUDIO
    TITLE "0:"
    INDEX 01 01:48:51
  TRACK 65 AUDIO
    TITLE "11:cjc174_0358"
    INDEX 01 01:49:19
  TRACK 66 AUDIO
    TITLE "0:"
    INDEX 01 01:54:65
  TRACK 67 AUDIO
    TITLE "9:cjc174_0359"
    INDEX 01 01:55:37
  TRACK 68 AUDIO
    TITLE "0:"
    INDEX 01 01:56:56
  TRACK 69 AUDIO
    TITLE "10:cjc174_0360"
    INDEX 01 01:57:26
  TRACK 70 AUDIO
    TITLE "0:"
    INDEX 01 02:00:15
  TRACK 71 AUDIO
    TITLE "11:cjc174_0361"
    INDEX 01 02:01:04
  TRACK 72 AUDIO
    TITLE "0:"
    INDEX 01 02:03:37
  TRACK 73 AUDIO
    TITLE "9:cjc174_0362"
    INDEX 01 02:04:09
  TRACK 74 AUDIO
    TITLE "0:"
    INDEX 01 02:05:33
  TRACK 75 AUDIO
    TITLE "10:cjc174_0363"
    INDEX 01 02:06:06
  TRACK 76 AUDIO
    TITLE "0:"
    INDEX 01 02:08:20
  TRACK 77 AUDIO
    TITLE "11:cjc174_0364"
    INDEX 01 02:08:67
  TRACK 78 AUDIO
    TITLE "0:"
    INDEX 01 02:13:15
  TRACK 79 AUDIO
    TITLE "9:cjc174_0365"
    INDEX 01 02:13:64
  TRACK 80 AUDIO
    TITLE "0:"
    INDEX 01 02:15:10
  TRACK 81 AUDIO
    TITLE "10:cjc174_0366"
    INDEX 01 02:15:57
  TRACK 82 AUDIO
    TITLE "0:"
    INDEX 01 02:17:03
  TRACK 83 AUDIO
    TITLE "11:cjc174_0367"
    INDEX 01 02:17:46
  TRACK 84 AUDIO
    TITLE "0:"
    INDEX 01 02:21:64
